<svg width="1200" height="900" viewBox="0 0 1200 900" fill="none" xmlns="http://www.w3.org/2000/svg">
  <defs>
    <linearGradient id="bg4" x1="600" y1="0" x2="600" y2="900" gradientUnits="userSpaceOnUse">
      <stop stop-color="#d8d3c8"/>
      <stop offset="1" stop-color="#c0b39f"/>
    </linearGradient>
  </defs>
  <rect width="1200" height="900" fill="url(#bg4)"/>
  <rect y="620" width="1200" height="280" fill="#93846f"/>
  <rect x="130" y="230" width="560" height="300" rx="18" fill="#e0e6ea"/>
  <rect x="220" y="170" width="250" height="150" rx="10" fill="#6b757d"/>
  <rect x="760" y="260" width="270" height="330" rx="20" fill="#f0f3f4"/>
  <rect x="820" y="200" width="150" height="110" rx="10" fill="#8d9aa2"/>
  <g>
    <rect x="130" y="566" width="950" height="22" rx="11" fill="#2a3440"/>
    <g fill="#44515d">
      <rect x="150" y="588" width="16" height="232"/>
      <rect x="205" y="588" width="16" height="232"/>
      <rect x="260" y="588" width="16" height="232"/>
      <rect x="315" y="588" width="16" height="232"/>
      <rect x="370" y="588" width="16" height="232"/>
      <rect x="425" y="588" width="16" height="232"/>
      <rect x="480" y="588" width="16" height="232"/>
      <rect x="535" y="588" width="16" height="232"/>
      <rect x="590" y="588" width="16" height="232"/>
      <rect x="645" y="588" width="16" height="232"/>
      <rect x="700" y="588" width="16" height="232"/>
      <rect x="755" y="588" width="16" height="232"/>
      <rect x="810" y="588" width="16" height="232"/>
      <rect x="865" y="588" width="16" height="232"/>
      <rect x="920" y="588" width="16" height="232"/>
      <rect x="975" y="588" width="16" height="232"/>
    </g>
    <rect x="130" y="828" width="950" height="14" rx="7" fill="#131921"/>
  </g>
</svg>
