<svg width="1200" height="900" viewBox="0 0 1200 900" fill="none" xmlns="http://www.w3.org/2000/svg">
  <defs>
    <linearGradient id="bg1" x1="600" y1="0" x2="600" y2="900" gradientUnits="userSpaceOnUse">
      <stop stop-color="#d9d1c4"/>
      <stop offset="1" stop-color="#b8a894"/>
    </linearGradient>
  </defs>
  <rect width="1200" height="900" fill="url(#bg1)"/>
  <rect y="610" width="1200" height="290" fill="#8f7f6c"/>
  <rect x="120" y="240" width="660" height="320" rx="18" fill="#d8e0e6"/>
  <rect x="230" y="180" width="320" height="170" rx="12" fill="#606a72"/>
  <rect x="560" y="180" width="180" height="420" rx="16" fill="#7c8a92"/>
  <g>
    <rect x="150" y="560" width="880" height="24" rx="12" fill="#2b333a"/>
    <g fill="#3b4650">
      <rect x="150" y="584" width="18" height="230"/>
      <rect x="210" y="584" width="18" height="230"/>
      <rect x="270" y="584" width="18" height="230"/>
      <rect x="330" y="584" width="18" height="230"/>
      <rect x="390" y="584" width="18" height="230"/>
      <rect x="450" y="584" width="18" height="230"/>
      <rect x="510" y="584" width="18" height="230"/>
      <rect x="570" y="584" width="18" height="230"/>
      <rect x="630" y="584" width="18" height="230"/>
      <rect x="690" y="584" width="18" height="230"/>
      <rect x="750" y="584" width="18" height="230"/>
      <rect x="810" y="584" width="18" height="230"/>
      <rect x="870" y="584" width="18" height="230"/>
      <rect x="930" y="584" width="18" height="230"/>
    </g>
    <rect x="150" y="806" width="880" height="14" rx="7" fill="#131922"/>
  </g>
</svg>
